STARTFONT 2.1
COMMENT Recovered from arc.ast's:HL12I AST (MIT CADR AST source recovered from ARC!!!)
FONT MIT-CADR-HL12I
SIZE 14 72 72
FONTBOUNDINGBOX 16 14 0 -3
STARTPROPERTIES 2
FONT_ASCENT 11
FONT_DESCENT 3
ENDPROPERTIES
CHARS 95
STARTCHAR C0018
ENCODING -1 24
SWIDTH 0 0
DWIDTH 0 0
BBX 16 14 0 -3
BITMAP
0000
0000
0000
0000
0000
0000
0000
0000
0000
0000
0000
0000
7FFE
0000
ENDCHAR
STARTCHAR C0020
ENCODING -1 32
SWIDTH 429 0
DWIDTH 6 0
BBX 16 14 0 -3
BITMAP
0000
0000
0000
0000
0000
0000
0000
0000
0000
0000
0000
0000
0000
0000
ENDCHAR
STARTCHAR C0021
ENCODING -1 33
SWIDTH 357 0
DWIDTH 5 0
BBX 16 14 0 -3
BITMAP
0000
0800
0800
0800
1000
1000
1000
1000
0000
2000
2000
0000
0000
0000
ENDCHAR
STARTCHAR C0022
ENCODING -1 34
SWIDTH 500 0
DWIDTH 7 0
BBX 16 14 0 -3
BITMAP
0000
1200
1200
2400
2400
0000
0000
0000
0000
0000
0000
0000
0000
0000
ENDCHAR
STARTCHAR C0023
ENCODING -1 35
SWIDTH 714 0
DWIDTH 10 0
BBX 16 14 0 -3
BITMAP
0000
0240
0240
0480
1FC0
0900
0900
3F80
1200
2400
2400
0000
0000
0000
ENDCHAR
STARTCHAR C0024
ENCODING -1 36
SWIDTH 786 0
DWIDTH 11 0
BBX 16 14 0 -3
BITMAP
0100
07C0
0920
1120
1200
0F00
0280
0240
2440
2480
1F00
0400
0000
0000
ENDCHAR
STARTCHAR C0025
ENCODING -1 37
SWIDTH 1000 0
DWIDTH 14 0
BBX 16 14 0 -3
BITMAP
0000
0E10
1120
2140
2240
1C80
0138
0244
0284
0488
0870
0000
0000
0000
ENDCHAR
STARTCHAR C0026
ENCODING -1 38
SWIDTH 786 0
DWIDTH 11 0
BBX 16 14 0 -3
BITMAP
0000
0700
0880
0880
0500
0E00
1240
2180
2080
2140
1E20
0000
0000
0000
ENDCHAR
STARTCHAR C0027
ENCODING -1 39
SWIDTH 286 0
DWIDTH 4 0
BBX 16 14 0 -3
BITMAP
0000
1000
1000
2000
2000
0000
0000
0000
0000
0000
0000
0000
0000
0000
ENDCHAR
STARTCHAR C0028
ENCODING -1 40
SWIDTH 500 0
DWIDTH 7 0
BBX 16 14 0 -3
BITMAP
0000
0200
0400
0800
1000
1000
2000
2000
2000
2000
2000
2000
1000
1000
ENDCHAR
STARTCHAR C0029
ENCODING -1 41
SWIDTH 500 0
DWIDTH 7 0
BBX 16 14 0 -3
BITMAP
0000
0400
0400
0200
0200
0200
0200
0200
0200
0400
0400
0800
1000
2000
ENDCHAR
STARTCHAR C002A
ENCODING -1 42
SWIDTH 500 0
DWIDTH 7 0
BBX 16 14 0 -3
BITMAP
0000
0800
2A00
1C00
2A00
0800
0000
0000
0000
0000
0000
0000
0000
0000
ENDCHAR
STARTCHAR C002B
ENCODING -1 43
SWIDTH 571 0
DWIDTH 8 0
BBX 16 14 0 -3
BITMAP
0000
0000
0000
0000
0400
0400
0400
3F00
0800
0800
0800
0000
0000
0000
ENDCHAR
STARTCHAR C002C
ENCODING -1 44
SWIDTH 286 0
DWIDTH 4 0
BBX 16 14 0 -3
BITMAP
0000
0000
0000
0000
0000
0000
0000
0000
0000
3000
1000
1000
6000
0000
ENDCHAR
STARTCHAR C002D
ENCODING -1 45
SWIDTH 500 0
DWIDTH 7 0
BBX 16 14 0 -3
BITMAP
0000
0000
0000
0000
0000
0000
3E00
0000
0000
0000
0000
0000
0000
0000
ENDCHAR
STARTCHAR C002E
ENCODING -1 46
SWIDTH 286 0
DWIDTH 4 0
BBX 16 14 0 -3
BITMAP
0000
0000
0000
0000
0000
0000
0000
0000
0000
0000
0000
0000
0000
0000
ENDCHAR
STARTCHAR C002F
ENCODING -1 47
SWIDTH 643 0
DWIDTH 9 0
BBX 16 14 0 -3
BITMAP
0000
0080
0100
0100
0200
0400
0400
0800
1000
1000
2000
0000
0000
0000
ENDCHAR
STARTCHAR C0030
ENCODING -1 48
SWIDTH 643 0
DWIDTH 9 0
BBX 16 14 0 -3
BITMAP
0000
0600
1900
1080
2080
2080
2080
2080
2100
1300
0C00
0000
0000
0000
ENDCHAR
STARTCHAR C0031
ENCODING -1 49
SWIDTH 643 0
DWIDTH 9 0
BBX 16 14 0 -3
BITMAP
0000
0300
0700
0900
1200
0200
0200
0200
0400
0400
0400
0000
0000
0000
ENDCHAR
STARTCHAR C0032
ENCODING -1 50
SWIDTH 643 0
DWIDTH 9 0
BBX 16 14 0 -3
BITMAP
0000
0700
0880
1080
1080
0100
0600
0800
1000
2000
3F80
0000
0000
0000
ENDCHAR
STARTCHAR C0033
ENCODING -1 51
SWIDTH 643 0
DWIDTH 9 0
BBX 16 14 0 -3
BITMAP
0000
0700
0880
1080
0100
0E00
0100
0100
2100
2200
1C00
0000
0000
0000
ENDCHAR
STARTCHAR C0034
ENCODING -1 52
SWIDTH 643 0
DWIDTH 9 0
BBX 16 14 0 -3
BITMAP
0000
0180
0180
0280
0480
0900
1100
2100
3F80
0200
0200
0000
0000
0000
ENDCHAR
STARTCHAR C0035
ENCODING -1 53
SWIDTH 643 0
DWIDTH 9 0
BBX 16 14 0 -3
BITMAP
0000
0F80
0800
1000
1E00
2100
2100
0100
2100
2200
1C00
0000
0000
0000
ENDCHAR
STARTCHAR C0036
ENCODING -1 54
SWIDTH 643 0
DWIDTH 9 0
BBX 16 14 0 -3
BITMAP
0000
0700
0880
1000
1700
3880
2080
2080
2080
1100
0E00
0000
0000
0000
ENDCHAR
STARTCHAR C0037
ENCODING -1 55
SWIDTH 643 0
DWIDTH 9 0
BBX 16 14 0 -3
BITMAP
0000
1F80
0080
0100
0200
0400
0400
0800
0800
1000
1000
0000
0000
0000
ENDCHAR
STARTCHAR C0038
ENCODING -1 56
SWIDTH 643 0
DWIDTH 9 0
BBX 16 14 0 -3
BITMAP
0000
0700
0880
0880
0880
0F00
1080
2080
2080
2100
1E00
0000
0000
0000
ENDCHAR
STARTCHAR C0039
ENCODING -1 57
SWIDTH 643 0
DWIDTH 9 0
BBX 16 14 0 -3
BITMAP
0000
0E00
1100
2080
2080
2080
1080
0F80
0100
2100
1E00
0000
0000
0000
ENDCHAR
STARTCHAR C003A
ENCODING -1 58
SWIDTH 286 0
DWIDTH 4 0
BBX 16 14 0 -3
BITMAP
0000
0000
0000
0000
1000
1000
0000
0000
0000
2000
2000
0000
0000
0000
ENDCHAR
STARTCHAR C003B
ENCODING -1 59
SWIDTH 357 0
DWIDTH 5 0
BBX 16 14 0 -3
BITMAP
0000
0000
0000
0000
0800
0800
0000
0000
0000
3000
1000
1000
6000
0000
ENDCHAR
STARTCHAR C003C
ENCODING -1 60
SWIDTH 571 0
DWIDTH 8 0
BBX 16 14 0 -3
BITMAP
0000
0100
0200
0400
0800
1000
2000
2000
1000
0800
0400
0000
0000
0000
ENDCHAR
STARTCHAR C003D
ENCODING -1 61
SWIDTH 571 0
DWIDTH 8 0
BBX 16 14 0 -3
BITMAP
0000
0000
0000
0000
0000
0000
1F00
0000
3E00
0000
0000
0000
0000
0000
ENDCHAR
STARTCHAR C003E
ENCODING -1 62
SWIDTH 571 0
DWIDTH 8 0
BBX 16 14 0 -3
BITMAP
0000
0800
0400
0200
0100
0100
0200
0400
0800
1000
2000
0000
0000
0000
ENDCHAR
STARTCHAR C003F
ENCODING -1 63
SWIDTH 571 0
DWIDTH 8 0
BBX 16 14 0 -3
BITMAP
0000
0E00
1100
2100
0100
0600
0800
0800
0000
1000
1000
0000
0000
0000
ENDCHAR
STARTCHAR C0040
ENCODING -1 64
SWIDTH 1000 0
DWIDTH 14 0
BBX 16 14 0 -3
BITMAP
0000
03F0
0C08
11A4
1264
2444
2444
24C8
2370
1000
0FF0
0000
0000
0000
ENDCHAR
STARTCHAR C0041
ENCODING -1 65
SWIDTH 643 0
DWIDTH 9 0
BBX 16 14 0 -3
BITMAP
0000
0300
0500
0500
0900
0900
1100
2100
3F00
4100
4100
0000
0000
0000
ENDCHAR
STARTCHAR C0042
ENCODING -1 66
SWIDTH 643 0
DWIDTH 9 0
BBX 16 14 0 -3
BITMAP
0000
1F00
1080
1080
2080
3F00
2080
2080
4080
4100
7E00
0000
0000
0000
ENDCHAR
STARTCHAR C0043
ENCODING -1 67
SWIDTH 643 0
DWIDTH 9 0
BBX 16 14 0 -3
BITMAP
0000
0700
1880
2080
2000
4000
4000
4080
4080
2100
1E00
0000
0000
0000
ENDCHAR
STARTCHAR C0044
ENCODING -1 68
SWIDTH 714 0
DWIDTH 10 0
BBX 16 14 0 -3
BITMAP
0000
1F00
1080
1040
2040
2040
2040
2080
4080
4300
7C00
0000
0000
0000
ENDCHAR
STARTCHAR C0045
ENCODING -1 69
SWIDTH 714 0
DWIDTH 10 0
BBX 16 14 0 -3
BITMAP
0000
1FC0
1000
1000
2000
3F00
2000
2000
4000
4000
7F00
0000
0000
0000
ENDCHAR
STARTCHAR C0046
ENCODING -1 70
SWIDTH 571 0
DWIDTH 8 0
BBX 16 14 0 -3
BITMAP
0000
1F80
1000
1000
2000
3E00
2000
2000
4000
4000
4000
0000
0000
0000
ENDCHAR
STARTCHAR C0047
ENCODING -1 71
SWIDTH 714 0
DWIDTH 10 0
BBX 16 14 0 -3
BITMAP
0000
0780
1840
2040
2000
4000
43C0
4040
4040
2180
1E80
0000
0000
0000
ENDCHAR
STARTCHAR C0048
ENCODING -1 72
SWIDTH 714 0
DWIDTH 10 0
BBX 16 14 0 -3
BITMAP
0000
1040
1040
1040
2080
3F80
2080
2080
4100
4100
4100
0000
0000
0000
ENDCHAR
STARTCHAR C0049
ENCODING -1 73
SWIDTH 286 0
DWIDTH 4 0
BBX 16 14 0 -3
BITMAP
0000
1000
1000
1000
2000
2000
2000
2000
4000
4000
4000
0000
0000
0000
ENDCHAR
STARTCHAR C004A
ENCODING -1 74
SWIDTH 500 0
DWIDTH 7 0
BBX 16 14 0 -3
BITMAP
0000
0100
0100
0100
0200
0200
0200
0200
4400
4400
3800
0000
0000
0000
ENDCHAR
STARTCHAR C004B
ENCODING -1 75
SWIDTH 643 0
DWIDTH 9 0
BBX 16 14 0 -3
BITMAP
0000
1080
1100
1200
2400
3800
2800
2400
4400
4200
4200
0000
0000
0000
ENDCHAR
STARTCHAR C004C
ENCODING -1 76
SWIDTH 571 0
DWIDTH 8 0
BBX 16 14 0 -3
BITMAP
0000
1000
1000
1000
2000
2000
2000
2000
4000
4000
7F00
0000
0000
0000
ENDCHAR
STARTCHAR C004D
ENCODING -1 77
SWIDTH 857 0
DWIDTH 12 0
BBX 16 14 0 -3
BITMAP
0000
1818
1828
1828
2850
2850
2890
2510
4520
4620
4620
0000
0000
0000
ENDCHAR
STARTCHAR C004E
ENCODING -1 78
SWIDTH 786 0
DWIDTH 11 0
BBX 16 14 0 -3
BITMAP
0000
1820
1820
1420
2440
2440
2240
2240
4280
4180
4180
0000
0000
0000
ENDCHAR
STARTCHAR C004F
ENCODING -1 79
SWIDTH 714 0
DWIDTH 10 0
BBX 16 14 0 -3
BITMAP
0000
0F00
3080
2040
4040
4040
4040
4040
4080
2180
1E00
0000
0000
0000
ENDCHAR
STARTCHAR C0050
ENCODING -1 80
SWIDTH 643 0
DWIDTH 9 0
BBX 16 14 0 -3
BITMAP
0000
1F00
1080
1080
2080
2100
3E00
2000
4000
4000
4000
0000
0000
0000
ENDCHAR
STARTCHAR C0051
ENCODING -1 81
SWIDTH 714 0
DWIDTH 10 0
BBX 16 14 0 -3
BITMAP
0000
0F00
3080
2040
4040
4040
4040
4040
4480
2380
1F00
0080
0000
0000
ENDCHAR
STARTCHAR C0052
ENCODING -1 82
SWIDTH 714 0
DWIDTH 10 0
BBX 16 14 0 -3
BITMAP
0000
1F80
1040
1040
2080
3F00
2080
2080
4100
4100
4100
0000
0000
0000
ENDCHAR
STARTCHAR C0053
ENCODING -1 83
SWIDTH 643 0
DWIDTH 9 0
BBX 16 14 0 -3
BITMAP
0000
0F00
1080
2080
2000
1E00
0100
0080
4080
4100
3E00
0000
0000
0000
ENDCHAR
STARTCHAR C0054
ENCODING -1 84
SWIDTH 714 0
DWIDTH 10 0
BBX 16 14 0 -3
BITMAP
0000
3FE0
0200
0200
0400
0400
0400
0400
0800
0800
0800
0000
0000
0000
ENDCHAR
STARTCHAR C0055
ENCODING -1 85
SWIDTH 714 0
DWIDTH 10 0
BBX 16 14 0 -3
BITMAP
0000
1040
1040
1040
2080
2080
2080
4080
4100
4100
3E00
0000
0000
0000
ENDCHAR
STARTCHAR C0056
ENCODING -1 86
SWIDTH 714 0
DWIDTH 10 0
BBX 16 14 0 -3
BITMAP
0000
2040
2040
2080
2100
2100
2200
2400
2400
2800
3000
0000
0000
0000
ENDCHAR
STARTCHAR C0057
ENCODING -1 87
SWIDTH 1000 0
DWIDTH 14 0
BBX 16 14 0 -3
BITMAP
0000
2184
2184
2288
2288
2490
2490
28A0
28A0
30C0
30C0
0000
0000
0000
ENDCHAR
STARTCHAR C0058
ENCODING -1 88
SWIDTH 714 0
DWIDTH 10 0
BBX 16 14 0 -3
BITMAP
0000
1040
1080
0900
0A00
0400
0400
0A00
1200
2100
4100
0000
0000
0000
ENDCHAR
STARTCHAR C0059
ENCODING -1 89
SWIDTH 714 0
DWIDTH 10 0
BBX 16 14 0 -3
BITMAP
0000
4040
4080
2100
2200
1400
1800
1000
1000
2000
2000
0000
0000
0000
ENDCHAR
STARTCHAR C005A
ENCODING -1 90
SWIDTH 643 0
DWIDTH 9 0
BBX 16 14 0 -3
BITMAP
0000
3F80
0080
0100
0200
0400
0800
1000
2000
4000
7F00
0000
0000
0000
ENDCHAR
STARTCHAR C005B
ENCODING -1 91
SWIDTH 643 0
DWIDTH 9 0
BBX 16 14 0 -3
BITMAP
0000
0780
0400
0400
0800
0800
0800
1000
1000
1000
1000
2000
2000
3C00
ENDCHAR
STARTCHAR C005C
ENCODING -1 92
SWIDTH 500 0
DWIDTH 7 0
BBX 16 14 0 -3
BITMAP
0000
2000
2000
1000
1000
0800
0800
0400
0400
0200
0200
0000
0000
0000
ENDCHAR
STARTCHAR C005D
ENCODING -1 93
SWIDTH 643 0
DWIDTH 9 0
BBX 16 14 0 -3
BITMAP
0000
0780
0080
0080
0100
0100
0100
0200
0200
0200
0200
0400
0400
3C00
ENDCHAR
STARTCHAR C005E
ENCODING -1 94
SWIDTH 500 0
DWIDTH 7 0
BBX 16 14 0 -3
BITMAP
0000
0000
0000
0800
1C00
2A00
0800
1000
1000
1000
0000
0000
0000
0000
ENDCHAR
STARTCHAR C005F
ENCODING -1 95
SWIDTH 643 0
DWIDTH 9 0
BBX 16 14 0 -3
BITMAP
0000
0000
0000
0000
0400
0800
3F80
1000
0800
0000
0000
0000
0000
0000
ENDCHAR
STARTCHAR C0061
ENCODING -1 97
SWIDTH 571 0
DWIDTH 8 0
BBX 16 14 0 -3
BITMAP
0000
0000
0000
0000
1E00
2100
0100
3F00
4200
4200
3D00
0000
0000
0000
ENDCHAR
STARTCHAR C0062
ENCODING -1 98
SWIDTH 571 0
DWIDTH 8 0
BBX 16 14 0 -3
BITMAP
0000
1000
1000
1000
3E00
2100
2100
2100
4100
6200
5C00
0000
0000
0000
ENDCHAR
STARTCHAR C0063
ENCODING -1 99
SWIDTH 571 0
DWIDTH 8 0
BBX 16 14 0 -3
BITMAP
0000
0000
0000
0000
1E00
2100
4100
4000
4200
4200
3C00
0000
0000
0000
ENDCHAR
STARTCHAR C0064
ENCODING -1 100
SWIDTH 571 0
DWIDTH 8 0
BBX 16 14 0 -3
BITMAP
0000
0080
0080
0080
0F00
3100
2100
4100
4200
4600
3A00
0000
0000
0000
ENDCHAR
STARTCHAR C0065
ENCODING -1 101
SWIDTH 571 0
DWIDTH 8 0
BBX 16 14 0 -3
BITMAP
0000
0000
0000
0000
0E00
3100
2100
7F00
4000
4200
3C00
0000
0000
0000
ENDCHAR
STARTCHAR C0066
ENCODING -1 102
SWIDTH 429 0
DWIDTH 6 0
BBX 16 14 0 -3
BITMAP
0000
0E00
1000
1000
7C00
2000
2000
2000
4000
4000
4000
0000
0000
0000
ENDCHAR
STARTCHAR C0067
ENCODING -1 103
SWIDTH 571 0
DWIDTH 8 0
BBX 16 14 0 -3
BITMAP
0000
0000
0000
0000
1D00
2300
4100
4200
4200
4200
3E00
0400
C400
7800
ENDCHAR
STARTCHAR C0068
ENCODING -1 104
SWIDTH 571 0
DWIDTH 8 0
BBX 16 14 0 -3
BITMAP
0000
1000
1000
1000
3E00
2100
2100
2100
4100
4200
4200
0000
0000
0000
ENDCHAR
STARTCHAR C0069
ENCODING -1 105
SWIDTH 286 0
DWIDTH 4 0
BBX 16 14 0 -3
BITMAP
0000
1000
1000
0000
2000
2000
2000
2000
4000
4000
4000
0000
0000
0000
ENDCHAR
STARTCHAR C006A
ENCODING -1 106
SWIDTH 357 0
DWIDTH 5 0
BBX 16 14 0 -3
BITMAP
0000
0800
0800
0000
1000
1000
1000
1000
2000
2000
2000
2000
C000
0000
ENDCHAR
STARTCHAR C006B
ENCODING -1 107
SWIDTH 500 0
DWIDTH 7 0
BBX 16 14 0 -3
BITMAP
0000
1000
1000
1000
2200
2400
2800
3400
4400
4200
4200
0000
0000
0000
ENDCHAR
STARTCHAR C006C
ENCODING -1 108
SWIDTH 286 0
DWIDTH 4 0
BBX 16 14 0 -3
BITMAP
0000
1000
1000
1000
2000
2000
2000
2000
4000
4000
4000
0000
0000
0000
ENDCHAR
STARTCHAR C006D
ENCODING -1 109
SWIDTH 786 0
DWIDTH 11 0
BBX 16 14 0 -3
BITMAP
0000
0000
0000
0000
2EC0
3320
2220
2220
4220
4440
4440
0000
0000
0000
ENDCHAR
STARTCHAR C006E
ENCODING -1 110
SWIDTH 571 0
DWIDTH 8 0
BBX 16 14 0 -3
BITMAP
0000
0000
0000
0000
2E00
3100
2100
2100
4100
4200
4200
0000
0000
0000
ENDCHAR
STARTCHAR C006F
ENCODING -1 111
SWIDTH 571 0
DWIDTH 8 0
BBX 16 14 0 -3
BITMAP
0000
0000
0000
0000
1E00
2100
4100
4100
4100
4200
3C00
0000
0000
0000
ENDCHAR
STARTCHAR C0070
ENCODING -1 112
SWIDTH 571 0
DWIDTH 8 0
BBX 16 14 0 -3
BITMAP
0000
0000
0000
0000
2E00
3100
2100
4100
4100
4200
7C00
8000
8000
8000
ENDCHAR
STARTCHAR C0071
ENCODING -1 113
SWIDTH 571 0
DWIDTH 8 0
BBX 16 14 0 -3
BITMAP
0000
0000
0000
0000
1D00
2300
4100
4200
4200
4200
3E00
0400
0400
0400
ENDCHAR
STARTCHAR C0072
ENCODING -1 114
SWIDTH 429 0
DWIDTH 6 0
BBX 16 14 0 -3
BITMAP
0000
0000
0000
0000
2E00
3000
2000
2000
4000
4000
4000
0000
0000
0000
ENDCHAR
STARTCHAR C0073
ENCODING -1 115
SWIDTH 500 0
DWIDTH 7 0
BBX 16 14 0 -3
BITMAP
0000
0000
0000
0000
1C00
2200
2000
1C00
4200
4200
3C00
0000
0000
0000
ENDCHAR
STARTCHAR C0074
ENCODING -1 116
SWIDTH 500 0
DWIDTH 7 0
BBX 16 14 0 -3
BITMAP
0000
0000
0800
0800
3E00
1000
1000
1000
2000
2000
1C00
0000
0000
0000
ENDCHAR
STARTCHAR C0075
ENCODING -1 117
SWIDTH 571 0
DWIDTH 8 0
BBX 16 14 0 -3
BITMAP
0000
0000
0000
0000
2100
2100
2100
4200
4200
4600
3A00
0000
0000
0000
ENDCHAR
STARTCHAR C0076
ENCODING -1 118
SWIDTH 500 0
DWIDTH 7 0
BBX 16 14 0 -3
BITMAP
0000
0000
0000
0000
2200
2200
2400
2400
2800
2800
3000
0000
0000
0000
ENDCHAR
STARTCHAR C0077
ENCODING -1 119
SWIDTH 857 0
DWIDTH 12 0
BBX 16 14 0 -3
BITMAP
0000
0000
0000
0000
2310
2310
2520
2520
2940
2940
3180
0000
0000
0000
ENDCHAR
STARTCHAR C0078
ENCODING -1 120
SWIDTH 571 0
DWIDTH 8 0
BBX 16 14 0 -3
BITMAP
0000
0000
0000
0000
2100
2200
1400
0800
1400
2200
4200
0000
0000
0000
ENDCHAR
STARTCHAR C0079
ENCODING -1 121
SWIDTH 571 0
DWIDTH 8 0
BBX 16 14 0 -3
BITMAP
0000
0000
0000
0000
4100
4100
2200
2200
1400
1400
0800
0800
9000
6000
ENDCHAR
STARTCHAR C007A
ENCODING -1 122
SWIDTH 571 0
DWIDTH 8 0
BBX 16 14 0 -3
BITMAP
0000
0000
0000
0000
3F00
0200
0400
0800
1000
2000
7E00
0000
0000
0000
ENDCHAR
STARTCHAR C007B
ENCODING -1 123
SWIDTH 643 0
DWIDTH 9 0
BBX 16 14 0 -3
BITMAP
0000
0180
0200
0400
0400
0400
0800
3000
0800
0800
1000
1000
1000
0C00
ENDCHAR
STARTCHAR C007C
ENCODING -1 124
SWIDTH 357 0
DWIDTH 5 0
BBX 16 14 0 -3
BITMAP
0000
0800
0800
0800
0800
1000
1000
1000
1000
2000
2000
2000
2000
0000
ENDCHAR
STARTCHAR C007D
ENCODING -1 125
SWIDTH 643 0
DWIDTH 9 0
BBX 16 14 0 -3
BITMAP
0000
0600
0100
0100
0100
0200
0200
0180
0200
0400
0400
0400
0800
3000
ENDCHAR
STARTCHAR C007E
ENCODING -1 126
SWIDTH 643 0
DWIDTH 9 0
BBX 16 14 0 -3
BITMAP
0000
0000
0000
0000
1880
2480
2300
0000
0000
0000
0000
0000
0000
0000
ENDCHAR
ENDFONT
